<svg width="36" height="13" viewBox="0 0 36 13" fill="none" xmlns="http://www.w3.org/2000/svg">
<path d="M23.7517 10.7823C23.9442 11.4239 23.4638 12.0696 22.7939 12.0696H1.34403C0.674167 12.0696 0.193721 11.4239 0.386204 10.7823L1.59655 6.74781C1.72344 6.32482 2.11277 6.03516 2.55438 6.03516H21.5836C22.0252 6.03516 22.4145 6.32482 22.5414 6.74781L23.7517 10.7823Z" fill="#3242CC"/>
<path d="M10.4759 10.7823C10.6683 11.4239 10.1879 12.0696 9.51804 12.0696H1.34403C0.674169 12.0696 0.193721 11.4239 0.386204 10.7823L1.59655 6.74781C1.72344 6.32482 2.11277 6.03516 2.55438 6.03516H8.30769C8.7493 6.03516 9.13862 6.32482 9.26552 6.74781L10.4759 10.7823Z" fill="#9BA5FF"/>
<path d="M34.615 10.7823C34.8075 11.4239 34.327 12.0696 33.6572 12.0696H12.2073C11.5374 12.0696 11.057 11.4239 11.2495 10.7823L12.4598 6.74781C12.5867 6.32482 12.976 6.03516 13.4177 6.03516H32.4468C32.8884 6.03516 33.2778 6.32482 33.4047 6.74781L34.615 10.7823Z" fill="#3242CC"/>
<path d="M21.3391 10.7823C21.5316 11.4239 21.0512 12.0696 20.3813 12.0696H12.2073C11.5375 12.0696 11.057 11.4239 11.2495 10.7823L12.4598 6.74781C12.5867 6.32482 12.976 6.03516 13.4177 6.03516H19.171C19.6126 6.03516 20.0019 6.32482 20.1288 6.74781L21.3391 10.7823Z" fill="#9BA5FF"/>
<path d="M29.7869 4.74713C29.9794 5.38875 29.4989 6.03448 28.8291 6.03448H7.37919C6.70932 6.03448 6.22888 5.38875 6.42136 4.74713L7.63171 0.712652C7.7586 0.289668 8.14792 0 8.58953 0H27.6187C28.0603 0 28.4496 0.289668 28.5765 0.712652L29.7869 4.74713Z" fill="#3242CC"/>
<path d="M16.511 4.74713C16.7035 5.38875 16.2231 6.03448 15.5532 6.03448H7.37919C6.70932 6.03448 6.22888 5.38875 6.42136 4.74713L7.63171 0.712652C7.7586 0.289668 8.14792 0 8.58953 0H14.3428C14.7845 0 15.1738 0.289668 15.3007 0.712652L16.511 4.74713Z" fill="#9BA5FF"/>
</svg>
