<svg width="96" height="96" viewBox="0 0 96 96" fill="none" xmlns="http://www.w3.org/2000/svg">
<g clip-path="url(#clip0)">
<path d="M37.1936 50.874H29.9805V62.7628H37.1936V50.874Z" fill="black"/>
<path d="M33.6491 48.9839C35.904 48.9839 37.7319 47.1695 37.7319 44.9314C37.7319 42.6933 35.904 40.8789 33.6491 40.8789C31.3943 40.8789 29.5664 42.6933 29.5664 44.9314C29.5664 47.1695 31.3943 48.9839 33.6491 48.9839Z" fill="black"/>
<path d="M50.8508 28.9473H24.9727V67.9024H50.8508V67.8943C56.5033 67.8175 60.9809 66.425 64.1589 63.7404C68.0247 60.4763 69.984 55.3235 69.984 48.4238C69.984 45.1269 69.4678 42.1679 68.4517 39.6319C67.4794 37.2061 66.0419 35.1424 64.1803 33.5003C60.9014 30.6081 56.2991 29.0438 50.8502 28.9554V28.9473H50.8508ZM50.3615 31.5343C55.3767 31.5343 59.5565 32.8824 62.4495 35.4346C65.7187 38.3197 67.3771 42.6905 67.3771 48.4244C67.3771 59.7892 61.8112 65.3149 50.3615 65.3149C49.4717 65.3149 29.8681 65.3149 27.5785 65.3149C27.5785 62.9973 27.5785 33.8521 27.5785 31.5349C29.8681 31.5343 49.4717 31.5343 50.3615 31.5343Z" fill="black"/>
<path d="M49.6522 62.7752H40.5039V34.6836H49.652H49.283C56.9127 34.6836 65.0345 37.6724 65.0345 48.7658C65.0345 60.4933 56.9125 62.7752 49.283 62.7752H49.6522Z" fill="#CC1B69"/>
<path d="M38.9258 41.9347H41.4384C42.005 41.9347 42.4367 41.9771 42.734 42.0635C43.1335 42.1802 43.4746 42.3884 43.7602 42.6855C44.0448 42.9846 44.262 43.349 44.4102 43.7809C44.5584 44.2124 44.6332 44.745 44.6332 45.3786C44.6332 45.9344 44.5624 46.4145 44.4245 46.8166C44.2535 47.3092 44.0106 47.7069 43.6956 48.0111C43.4568 48.2415 43.1346 48.4214 42.7304 48.5502C42.426 48.6452 42.0203 48.6932 41.5132 48.6932H38.9262V41.9346H38.9258V41.9347ZM40.2986 43.0806V47.5484H41.3274C41.7123 47.5484 41.9908 47.5266 42.1607 47.4837C42.3842 47.4291 42.5695 47.3351 42.7166 47.2032C42.8647 47.0713 42.9838 46.854 43.0775 46.5514C43.1711 46.2492 43.2175 45.838 43.2175 45.317C43.2175 44.7951 43.1707 44.3954 43.0775 44.116C42.9843 43.8366 42.8545 43.6198 42.6865 43.4627C42.5196 43.3055 42.3057 43.1999 42.0491 43.1448C41.8562 43.1018 41.4795 43.0806 40.9175 43.0806H40.2986Z" fill="white"/>
<path d="M38.7383 41.7492V48.8781H41.511C42.0348 48.8781 42.4635 48.8265 42.7836 48.7264C43.2153 48.5895 43.564 48.3934 43.8226 48.1434C44.1575 47.8199 44.4192 47.395 44.5979 46.8771C44.7429 46.4562 44.8168 45.952 44.8168 45.3784C44.8168 44.7272 44.7385 44.1699 44.5842 43.7217C44.4269 43.2659 44.1943 42.8748 43.8933 42.5584C43.5868 42.2376 43.2132 42.0113 42.7846 41.886C42.4664 41.794 42.0261 41.749 41.4366 41.749L38.7383 41.7492ZM41.4368 42.119C41.9824 42.119 42.4015 42.1599 42.6804 42.2403C43.0454 42.3479 43.3625 42.5394 43.6231 42.8127C43.8879 43.0901 44.0925 43.4358 44.2325 43.84C44.3734 44.2507 44.4443 44.7682 44.4443 45.3786C44.4443 45.9117 44.3777 46.3754 44.2462 46.757C44.0864 47.2183 43.8563 47.5963 43.5632 47.8788C43.3463 48.088 43.0459 48.2553 42.6703 48.3749C42.3868 48.4639 41.9963 48.5089 41.5112 48.5089C41.5112 48.5089 39.4312 48.5089 39.11 48.5089C39.11 48.1689 39.11 42.4586 39.11 42.1192C39.4306 42.119 41.4368 42.119 41.4368 42.119Z" fill="white"/>
<path d="M40.1133 42.894V47.7316H41.3284C41.7332 47.7316 42.0202 47.7089 42.2076 47.6619C42.459 47.5992 42.6729 47.4907 42.8429 47.3385C43.0171 47.1824 43.153 46.9428 43.2573 46.6043C43.3566 46.2814 43.4044 45.8599 43.4044 45.3153C43.4044 44.7686 43.3555 44.3574 43.2553 44.0562C43.153 43.7496 43.0048 43.5035 42.8149 43.3272C42.624 43.1478 42.3797 43.0249 42.0889 42.9628C41.8823 42.9164 41.4995 42.8936 40.9187 42.8936H40.1133V42.894ZM40.9185 43.2644C41.5977 43.2644 41.8857 43.2966 42.0095 43.3241C42.233 43.3725 42.4183 43.4636 42.5603 43.5959C42.7044 43.7308 42.819 43.9248 42.9024 44.1734C42.9879 44.4322 43.0316 44.8162 43.0316 45.3164C43.0316 45.8166 42.9878 46.2143 42.9003 46.4977C42.8179 46.7655 42.7145 46.9566 42.5929 47.0652C42.4696 47.1763 42.3082 47.2566 42.1153 47.3036C41.9611 47.3431 41.6959 47.3633 41.3279 47.3633C41.3279 47.3633 40.7354 47.3633 40.4859 47.3633C40.4859 47.0379 40.4859 43.5899 40.4859 43.265C40.6675 43.2644 40.9185 43.2644 40.9185 43.2644Z" fill="white"/>
<path d="M46.1836 48.6938V41.9346H51.2242V43.0805H47.5566V44.5771H50.9678V45.7236H47.5566V47.5481H51.3546V48.694H46.1836V48.6938Z" fill="white"/>
<path d="M46 41.7492V48.8781H51.544V47.3632C51.544 47.3632 48.083 47.3632 47.746 47.3632C47.746 47.098 47.746 46.1733 47.746 45.9075C48.0789 45.9075 51.1572 45.9075 51.1572 45.9075V44.3921C51.1572 44.3921 48.0791 44.3921 47.746 44.3921C47.746 44.1485 47.746 43.5084 47.746 43.2648C48.081 43.2648 51.4137 43.2648 51.4137 43.2648V41.749L46 41.7492ZM51.0406 42.119C51.0406 42.3293 51.0406 42.6844 51.0406 42.8947C50.7057 42.8947 47.3739 42.8947 47.3739 42.8947V44.7617C47.3739 44.7617 50.4521 44.7617 50.7851 44.7617C50.7851 44.9714 50.7851 45.3282 50.7851 45.5374C50.4522 45.5374 47.3739 45.5374 47.3739 45.5374V47.7323C47.3739 47.7323 50.834 47.7323 51.171 47.7323C51.171 47.9425 51.171 48.2982 51.171 48.5084C50.8381 48.5084 46.7061 48.5084 46.3726 48.5084C46.3726 48.1683 46.3726 42.4581 46.3726 42.1186C46.7051 42.119 50.7088 42.119 51.0406 42.119Z" fill="white"/>
<path d="M59.0445 48.6938H57.5479L56.9543 47.1592H54.2339L53.6693 48.6938H52.2109L54.8574 41.9346H56.321L59.0445 48.6938ZM56.5131 46.0142L55.5744 43.5095L54.6546 46.0142H56.5131Z" fill="white"/>
<path d="M54.732 41.749L51.9414 48.878H53.8014C53.8014 48.878 54.2896 47.5505 54.3649 47.3445C54.5894 47.3445 56.6068 47.3445 56.8278 47.3445C56.9052 47.5461 57.4223 48.878 57.4223 48.878H59.3205L56.449 41.749H54.732ZM56.1965 42.1189C56.283 42.3351 58.5845 48.0468 58.7708 48.5086C58.4425 48.5086 57.8489 48.5086 57.6783 48.5086C57.6009 48.3076 57.0838 46.9751 57.0838 46.9751H54.1048C54.1048 46.9751 53.6167 48.3035 53.5423 48.5086C53.3702 48.5086 52.8057 48.5086 52.4855 48.5086C52.6646 48.0503 54.9004 42.3382 54.9869 42.1189C55.1783 42.1189 56.0056 42.1189 56.1965 42.1189Z" fill="white"/>
<path d="M54.3906 46.1978H56.7827L55.5748 42.9746L54.3906 46.1978ZM55.5788 44.0444C55.7825 44.5886 56.1266 45.5087 56.2472 45.8285C55.921 45.8285 55.248 45.8285 54.9227 45.8285C55.0402 45.5106 55.3782 44.5895 55.5788 44.0444Z" fill="white"/>
<path d="M60.1953 48.6934V41.9893H61.5683V47.5473H64.9896V48.6932H60.1953V48.6934Z" fill="white"/>
<path d="M60.0078 41.8047V48.8776H65.1747V47.3627C65.1747 47.3627 62.0858 47.3627 61.7523 47.3627C61.7523 47.0166 61.7523 41.8047 61.7523 41.8047H60.0078ZM61.3808 42.174C61.3808 42.5196 61.3808 47.7321 61.3808 47.7321C61.3808 47.7321 64.4688 47.7321 64.8021 47.7321C64.8021 47.9423 64.8021 48.298 64.8021 48.5081C64.4722 48.5081 60.7098 48.5081 60.3795 48.5081C60.3795 48.1681 60.3795 42.514 60.3795 42.1739C60.614 42.174 61.1461 42.174 61.3808 42.174Z" fill="white"/>
</g>
<rect opacity="0.2" x="1" y="1" width="94" height="94" rx="47" stroke="#0F385E"/>
<defs>
<clipPath id="clip0">
<rect width="45" height="39" fill="white" transform="translate(25 29)"/>
</clipPath>
</defs>
</svg>
