<svg width="48" height="48" viewBox="0 0 48 48" fill="none" xmlns="http://www.w3.org/2000/svg">
<rect x="33.3008" y="12.1406" width="3.81695" height="7.63389" rx="0.5" transform="rotate(45 33.3008 12.1406)" fill="#3242CC"/>
<rect x="29.625" y="13.3047" width="7.04361" height="3.59032" rx="1" transform="rotate(45 29.625 13.3047)" fill="#3242CC"/>
<path fill-rule="evenodd" clip-rule="evenodd" d="M18.5519 13.4131C18.2252 13.4131 17.911 13.5388 17.6744 13.7641L11.7581 19.3986C11.506 19.6387 11.3633 19.9717 11.3633 20.3199V37.5871C11.3633 38.2898 11.9329 38.8594 12.6356 38.8594H32.9926C33.6953 38.8594 34.265 38.2898 34.265 37.5871V20.3199C34.265 19.9717 34.1222 19.6388 33.8701 19.3986L27.9538 13.7641C27.7173 13.5388 27.4031 13.4131 27.0764 13.4131H18.5519ZM14.9939 23.7779L21.7281 17.0437C22.1289 16.6429 21.8451 15.9577 21.2783 15.9577H19.0662C18.7287 15.9577 18.4051 16.0918 18.1665 16.3304L14.2806 20.2163C14.042 20.4549 13.9079 20.7785 13.9079 21.116V23.3281C13.9079 23.8949 14.5931 24.1787 14.9939 23.7779Z" fill="#9BA5FF"/>
<circle cx="22.8147" cy="28.6809" r="6.36158" fill="#3242CC"/>
<path d="M25 29.2C25 30.1941 24.1046 31 23 31C21.8954 31 21 30.1941 21 29.2C21 28.2059 23 25 23 25C23 25 25 28.2059 25 29.2Z" fill="#9BA5FF"/>
</svg>
