<svg width="48" height="48" viewBox="0 0 48 48" fill="none" xmlns="http://www.w3.org/2000/svg">
<rect x="28.8281" y="19.6279" width="6.9947" height="10.492" rx="1" fill="#9BA5FF"/>
<path d="M31.579 11.9914C31.9784 11.4442 32.795 11.4442 33.1945 11.9914L38.3141 19.0058C38.7964 19.6666 38.3244 20.5953 37.5064 20.5953L27.2671 20.5953C26.449 20.5953 25.977 19.6666 26.4593 19.0058L31.579 11.9914Z" fill="#9BA5FF"/>
<rect x="18.959" y="29.4922" width="6.9947" height="10.492" rx="1" transform="rotate(180 18.959 29.4922)" fill="#3242CC"/>
<path d="M16.2081 37.1287C15.8087 37.676 14.9921 37.676 14.5927 37.1287L9.473 30.1143C8.99071 29.4535 9.46266 28.5248 10.2807 28.5248L20.52 28.5248C21.3381 28.5248 21.8101 29.4535 21.3278 30.1143L16.2081 37.1287Z" fill="#3242CC"/>
<circle cx="24" cy="24" r="9" fill="#9BA5FF"/>
<circle cx="24" cy="24" r="7" fill="#FBFBFB"/>
<path d="M24 19.5V24H27.5" stroke="#3242CC" stroke-width="2" stroke-linecap="round" stroke-linejoin="round"/>
</svg>
