<svg width="48" height="48" viewBox="0 0 48 48" fill="none" xmlns="http://www.w3.org/2000/svg">
<path d="M17.6176 25.5283L11.2847 36.0912C11.0984 36.4019 11 36.7574 11 37.1196V38C11 39.1046 11.8954 40 13 40H34C35.1046 40 36 39.1046 36 38V15L34.5294 14L28.0588 24.7925C27.393 25.9031 25.7835 25.9031 25.1176 24.7925C24.4518 23.6818 22.8423 23.6818 22.1765 24.7925L21.7353 25.5283C21.2692 26.3057 20.1426 26.3057 19.6765 25.5283C19.2104 24.7509 18.0838 24.7509 17.6176 25.5283Z" fill="#9BA5FF"/>
<path d="M11 37.0001L18.6471 24.0001L20.7059 27.5001L23.6471 22.5001L26.5882 27.5001L34.5 14" stroke="#3242CC" stroke-width="2" stroke-linecap="round" stroke-linejoin="round"/>
<path d="M32.0002 13.9241L35.0315 13.1072L35.8484 16.1384" stroke="#3242CC" stroke-width="2" stroke-linecap="round" stroke-linejoin="round"/>
</svg>
