<svg width="15" height="15" viewBox="0 0 15 15" fill="none" xmlns="http://www.w3.org/2000/svg">
<path d="M7.50016 2.5C10.8702 2.5 13.1248 4.375 14.262 7.5C12.9858 10.625 10.8702 12.5 7.50016 12.5C4.13016 12.5 2.01453 10.625 0.738281 7.5C2.01453 4.375 4.13016 2.5 7.50016 2.5ZM7.50016 11.25C10.1084 11.2494 12.0339 9.94825 12.9858 7.5C11.9208 5.07901 10.1745 3.75533 7.50016 3.75533C4.8261 3.75533 3.07818 5.07808 2.01453 7.5C3.07694 9.9191 4.82774 11.2494 7.50016 11.25ZM7.50016 10.3125C6.75424 10.3125 6.03887 10.0162 5.51142 9.48874C4.98397 8.96129 4.68766 8.24592 4.68766 7.5C4.68766 6.75408 4.98397 6.03871 5.51142 5.51126C6.03887 4.98382 6.75424 4.6875 7.50016 4.6875C8.24608 4.6875 8.96145 4.98382 9.48889 5.51126C10.0163 6.03871 10.3127 6.75408 10.3127 7.5C10.3127 8.24592 10.0163 8.96129 9.48889 9.48874C8.96145 10.0162 8.24608 10.3125 7.50016 10.3125ZM7.50016 9.0625C7.91456 9.0625 8.31199 8.89788 8.60501 8.60485C8.89804 8.31183 9.06266 7.9144 9.06266 7.5C9.06266 7.0856 8.89804 6.68817 8.60501 6.39514C8.31199 6.10212 7.91456 5.9375 7.50016 5.9375C7.08576 5.9375 6.68833 6.10212 6.3953 6.39514C6.10228 6.68817 5.93766 7.0856 5.93766 7.5C5.93766 7.9144 6.10228 8.31183 6.3953 8.60485C6.68833 8.89788 7.08576 9.0625 7.50016 9.0625Z" fill="#3242CC"/>
</svg>
