<svg width="14" height="15" viewBox="0 0 14 15" fill="none" xmlns="http://www.w3.org/2000/svg">
<path opacity="0.2" d="M12.5375 14.1667H0.7375C0.541903 14.1667 0.354317 14.092 0.216009 13.9592C0.0777006 13.8264 0 13.6462 0 13.4583V0.708333C0 0.520472 0.0777006 0.340304 0.216009 0.207466C0.354317 0.0746277 0.541903 0 0.7375 0H12.5375C12.7331 0 12.9207 0.0746277 13.059 0.207466C13.1973 0.340304 13.275 0.520472 13.275 0.708333V13.4583C13.275 13.6462 13.1973 13.8264 13.059 13.9592C12.9207 14.092 12.7331 14.1667 12.5375 14.1667ZM11.8 12.75V1.41667H1.475V12.75H11.8ZM3.6875 3.54167H9.5875V4.95833H3.6875V3.54167ZM3.6875 6.375H9.5875V7.79167H3.6875V6.375ZM3.6875 9.20833H7.375V10.625H3.6875V9.20833Z" fill="#0F385E"/>
</svg>
