<svg width="823" height="201" viewBox="0 0 823 201" fill="none" xmlns="http://www.w3.org/2000/svg">
<path d="M0 100.144C0 63.1506 0 44.6537 7.81029 30.8057C13.2352 21.1871 21.1871 13.2352 30.8057 7.81029C44.6537 0 63.1506 0 100.144 0C137.138 0 155.635 0 169.483 7.81029C179.101 13.2352 187.053 21.1871 192.478 30.8057C200.289 44.6537 200.289 63.1506 200.289 100.144C200.289 137.138 200.289 155.635 192.478 169.483C187.053 179.101 179.101 187.053 169.483 192.478C155.635 200.289 137.138 200.289 100.144 200.289C63.1506 200.289 44.6537 200.289 30.8057 192.478C21.1871 187.053 13.2352 179.101 7.81029 169.483C0 155.635 0 137.138 0 100.144Z" fill="white"/>
<path fill-rule="evenodd" clip-rule="evenodd" d="M87.7694 135.979C81.9308 137.769 75.8737 137.237 70.0597 134.254C64.3767 131.338 60.317 131.052 57.4379 131.553C54.4625 132.072 51.6674 133.623 48.9258 136.147C46.1416 138.711 43.7273 141.992 41.5914 145.381C40.5344 147.059 39.6032 148.667 38.7159 150.204C38.6709 150.281 38.6255 150.36 38.5797 150.439C37.8037 151.784 36.9081 153.336 36.0816 154.555C33.0414 159.04 26.9407 160.212 22.4555 157.171C17.9702 154.131 16.7987 148.031 19.8389 143.545C20.2225 142.979 20.7646 142.051 21.7239 140.39C22.6019 138.87 23.7065 136.957 24.9903 134.92C27.5359 130.88 31.0226 125.959 35.6344 121.712C40.2887 117.427 46.3845 113.561 54.0703 112.222C61.8523 110.866 70.2241 112.283 79.0183 116.796C80.4429 117.527 81.231 117.459 82.0163 117.219C83.195 116.857 85.0627 115.795 87.6923 113.201C92.6233 108.336 97.6451 100.821 103.87 91.5049C104.528 90.5197 105.2 89.5143 105.886 88.4898C112.69 78.3363 120.691 66.7538 130.34 57.7564C140.119 48.6375 152.388 41.4236 167.697 41.4236C173.115 41.4236 177.508 45.8162 177.508 51.2347C177.508 56.6533 173.115 61.0459 167.697 61.0459C159.086 61.0459 151.37 64.9754 143.722 72.1075C135.943 79.361 129.073 89.137 122.187 99.4132C121.479 100.47 120.765 101.54 120.047 102.618C114.16 111.454 107.939 120.791 101.473 127.169C97.7495 130.843 93.2146 134.309 87.7694 135.979Z" fill="#3439D3"/>
<path d="M330.777 51.336H344.061V81.468C340.173 84.564 335.637 86.94 330.453 88.596C325.269 90.252 319.941 91.08 314.469 91.08C306.765 91.08 299.817 89.424 293.625 86.112C287.433 82.728 282.573 78.084 279.045 72.18C275.517 66.276 273.753 59.616 273.753 52.2C273.753 44.784 275.517 38.124 279.045 32.22C282.573 26.316 287.433 21.708 293.625 18.396C299.889 15.012 306.909 13.32 314.685 13.32C321.021 13.32 326.781 14.364 331.965 16.452C337.149 18.54 341.505 21.6 345.033 25.632L336.177 34.272C330.417 28.512 323.469 25.632 315.333 25.632C310.005 25.632 305.253 26.748 301.077 28.98C296.973 31.212 293.733 34.344 291.357 38.376C289.053 42.408 287.901 47.016 287.901 52.2C287.901 57.24 289.053 61.776 291.357 65.808C293.733 69.84 296.973 73.008 301.077 75.312C305.253 77.616 309.969 78.768 315.225 78.768C321.129 78.768 326.313 77.472 330.777 74.88V51.336ZM411.719 61.488C411.719 62.424 411.647 63.756 411.503 65.484H366.251C367.043 69.732 369.095 73.116 372.407 75.636C375.791 78.084 379.967 79.308 384.935 79.308C391.271 79.308 396.491 77.22 400.595 73.044L407.831 81.36C405.239 84.456 401.963 86.796 398.003 88.38C394.043 89.964 389.579 90.756 384.611 90.756C378.275 90.756 372.695 89.496 367.871 86.976C363.047 84.456 359.303 80.964 356.639 76.5C354.047 71.964 352.751 66.852 352.751 61.164C352.751 55.548 354.011 50.508 356.531 46.044C359.123 41.508 362.687 37.98 367.223 35.46C371.759 32.94 376.871 31.68 382.559 31.68C388.175 31.68 393.179 32.94 397.571 35.46C402.035 37.908 405.491 41.4 407.939 45.936C410.459 50.4 411.719 55.584 411.719 61.488ZM382.559 42.48C378.239 42.48 374.567 43.776 371.543 46.368C368.591 48.888 366.791 52.272 366.143 56.52H398.867C398.291 52.344 396.527 48.96 393.575 46.368C390.623 43.776 386.951 42.48 382.559 42.48ZM420.906 9.864H434.406V90H420.906V9.864ZM504.829 9.864V90H491.869V82.548C489.637 85.284 486.865 87.336 483.553 88.704C480.313 90.072 476.713 90.756 472.753 90.756C467.209 90.756 462.205 89.532 457.741 87.084C453.349 84.636 449.893 81.18 447.373 76.716C444.853 72.18 443.593 66.996 443.593 61.164C443.593 55.332 444.853 50.184 447.373 45.72C449.893 41.256 453.349 37.8 457.741 35.352C462.205 32.904 467.209 31.68 472.753 31.68C476.569 31.68 480.061 32.328 483.229 33.624C486.397 34.92 489.097 36.864 491.329 39.456V9.864H504.829ZM474.373 79.2C477.613 79.2 480.529 78.48 483.121 77.04C485.713 75.528 487.765 73.404 489.277 70.668C490.789 67.932 491.545 64.764 491.545 61.164C491.545 57.564 490.789 54.396 489.277 51.66C487.765 48.924 485.713 46.836 483.121 45.396C480.529 43.884 477.613 43.128 474.373 43.128C471.133 43.128 468.217 43.884 465.625 45.396C463.033 46.836 460.981 48.924 459.469 51.66C457.957 54.396 457.201 57.564 457.201 61.164C457.201 64.764 457.957 67.932 459.469 70.668C460.981 73.404 463.033 75.528 465.625 77.04C468.217 78.48 471.133 79.2 474.373 79.2ZM279.153 111.4H293.193V187H279.153V111.4ZM341.289 128.68C348.561 128.68 354.393 130.804 358.785 135.052C363.177 139.3 365.373 145.6 365.373 153.952V187H351.873V155.68C351.873 150.64 350.685 146.86 348.309 144.34C345.933 141.748 342.549 140.452 338.157 140.452C333.189 140.452 329.265 141.964 326.385 144.988C323.505 147.94 322.065 152.224 322.065 157.84V187H308.565V129.328H321.417V136.78C323.649 134.116 326.457 132.1 329.841 130.732C333.225 129.364 337.041 128.68 341.289 128.68ZM431.664 129.328L406.932 187H393L368.268 129.328H382.308L400.236 172.096L418.704 129.328H431.664ZM488.955 158.488C488.955 159.424 488.883 160.756 488.739 162.484H443.487C444.279 166.732 446.331 170.116 449.643 172.636C453.027 175.084 457.203 176.308 462.171 176.308C468.507 176.308 473.727 174.22 477.831 170.044L485.067 178.36C482.475 181.456 479.199 183.796 475.239 185.38C471.279 186.964 466.815 187.756 461.847 187.756C455.511 187.756 449.931 186.496 445.107 183.976C440.283 181.456 436.539 177.964 433.875 173.5C431.283 168.964 429.987 163.852 429.987 158.164C429.987 152.548 431.247 147.508 433.767 143.044C436.359 138.508 439.923 134.98 444.459 132.46C448.995 129.94 454.107 128.68 459.795 128.68C465.411 128.68 470.415 129.94 474.807 132.46C479.271 134.908 482.727 138.4 485.175 142.936C487.695 147.4 488.955 152.584 488.955 158.488ZM459.795 139.48C455.475 139.48 451.803 140.776 448.779 143.368C445.827 145.888 444.027 149.272 443.379 153.52H476.103C475.527 149.344 473.763 145.96 470.811 143.368C467.859 140.776 464.187 139.48 459.795 139.48ZM515.963 187.756C511.283 187.756 506.711 187.144 502.247 185.92C497.783 184.696 494.219 183.148 491.555 181.276L496.739 171.016C499.331 172.744 502.427 174.148 506.027 175.228C509.699 176.236 513.299 176.74 516.827 176.74C524.891 176.74 528.923 174.616 528.923 170.368C528.923 168.352 527.879 166.948 525.791 166.156C523.775 165.364 520.499 164.608 515.963 163.888C511.211 163.168 507.323 162.34 504.299 161.404C501.347 160.468 498.755 158.848 496.523 156.544C494.363 154.168 493.283 150.892 493.283 146.716C493.283 141.244 495.551 136.888 500.087 133.648C504.695 130.336 510.887 128.68 518.663 128.68C522.623 128.68 526.583 129.148 530.543 130.084C534.503 130.948 537.743 132.136 540.263 133.648L535.079 143.908C530.183 141.028 524.675 139.588 518.555 139.588C514.595 139.588 511.571 140.2 509.483 141.424C507.467 142.576 506.459 144.124 506.459 146.068C506.459 148.228 507.539 149.776 509.699 150.712C511.931 151.576 515.351 152.404 519.959 153.196C524.567 153.916 528.347 154.744 531.299 155.68C534.251 156.616 536.771 158.2 538.859 160.432C541.019 162.664 542.099 165.832 542.099 169.936C542.099 175.336 539.759 179.656 535.079 182.896C530.399 186.136 524.027 187.756 515.963 187.756ZM584.613 183.868C583.029 185.164 581.085 186.136 578.781 186.784C576.549 187.432 574.173 187.756 571.653 187.756C565.317 187.756 560.421 186.1 556.965 182.788C553.509 179.476 551.781 174.652 551.781 168.316V140.56H542.277V129.76H551.781V116.584H565.281V129.76H580.725V140.56H565.281V167.992C565.281 170.8 565.965 172.96 567.333 174.472C568.701 175.912 570.681 176.632 573.273 176.632C576.297 176.632 578.817 175.84 580.833 174.256L584.613 183.868ZM644.256 158.488C644.256 159.424 644.184 160.756 644.04 162.484H598.788C599.58 166.732 601.632 170.116 604.944 172.636C608.328 175.084 612.504 176.308 617.472 176.308C623.808 176.308 629.028 174.22 633.132 170.044L640.368 178.36C637.776 181.456 634.5 183.796 630.54 185.38C626.58 186.964 622.116 187.756 617.148 187.756C610.812 187.756 605.232 186.496 600.408 183.976C595.584 181.456 591.84 177.964 589.176 173.5C586.584 168.964 585.288 163.852 585.288 158.164C585.288 152.548 586.548 147.508 589.068 143.044C591.66 138.508 595.224 134.98 599.76 132.46C604.296 129.94 609.408 128.68 615.096 128.68C620.712 128.68 625.716 129.94 630.108 132.46C634.572 134.908 638.028 138.4 640.476 142.936C642.996 147.4 644.256 152.584 644.256 158.488ZM615.096 139.48C610.776 139.48 607.104 140.776 604.08 143.368C601.128 145.888 599.328 149.272 598.68 153.52H631.404C630.828 149.344 629.064 145.96 626.112 143.368C623.16 140.776 619.488 139.48 615.096 139.48ZM666.296 137.752C670.184 131.704 677.024 128.68 686.816 128.68V141.532C685.664 141.316 684.62 141.208 683.684 141.208C678.428 141.208 674.324 142.756 671.372 145.852C668.42 148.876 666.944 153.268 666.944 159.028V187H653.444V129.328H666.296V137.752ZM748.177 158.488C748.177 159.424 748.105 160.756 747.961 162.484H702.709C703.501 166.732 705.553 170.116 708.865 172.636C712.249 175.084 716.425 176.308 721.393 176.308C727.729 176.308 732.949 174.22 737.053 170.044L744.289 178.36C741.697 181.456 738.421 183.796 734.461 185.38C730.501 186.964 726.037 187.756 721.069 187.756C714.733 187.756 709.153 186.496 704.329 183.976C699.505 181.456 695.761 177.964 693.097 173.5C690.505 168.964 689.209 163.852 689.209 158.164C689.209 152.548 690.469 147.508 692.989 143.044C695.581 138.508 699.145 134.98 703.681 132.46C708.217 129.94 713.329 128.68 719.017 128.68C724.633 128.68 729.637 129.94 734.029 132.46C738.493 134.908 741.949 138.4 744.397 142.936C746.917 147.4 748.177 152.584 748.177 158.488ZM719.017 139.48C714.697 139.48 711.025 140.776 708.001 143.368C705.049 145.888 703.249 149.272 702.601 153.52H735.325C734.749 149.344 732.985 145.96 730.033 143.368C727.081 140.776 723.409 139.48 719.017 139.48ZM790.088 128.68C797.36 128.68 803.192 130.804 807.584 135.052C811.976 139.3 814.172 145.6 814.172 153.952V187H800.672V155.68C800.672 150.64 799.484 146.86 797.108 144.34C794.732 141.748 791.348 140.452 786.956 140.452C781.988 140.452 778.064 141.964 775.184 144.988C772.304 147.94 770.864 152.224 770.864 157.84V187H757.364V129.328H770.216V136.78C772.448 134.116 775.256 132.1 778.64 130.732C782.024 129.364 785.84 128.68 790.088 128.68Z" fill="white"/>
</svg>
