<svg width="15" height="15" viewBox="0 0 15 15" fill="none" xmlns="http://www.w3.org/2000/svg">
<path d="M10.6775 9.88245C11.2653 9.26144 11.6582 8.48182 11.8076 7.63994C11.9571 6.79806 11.8566 5.93083 11.5186 5.14544C11.1805 4.36005 10.6197 3.69094 9.90555 3.2208C9.19136 2.75066 8.35505 2.50011 7.5 2.50011C6.64496 2.50011 5.80865 2.75066 5.09445 3.2208C4.38026 3.69094 3.81948 4.36005 3.48144 5.14544C3.14339 5.93083 3.0429 6.79806 3.19237 7.63994C3.34185 8.48182 3.73475 9.26144 4.3225 9.88245C4.65979 9.34423 5.12835 8.90057 5.68417 8.59314C6.23999 8.28572 6.86483 8.12461 7.5 8.12495C8.13518 8.12461 8.76002 8.28572 9.31583 8.59314C9.87165 8.90057 10.3402 9.34423 10.6775 9.88245ZM5.24063 10.8031L7.5 13.0618L9.75938 10.8031C9.55676 10.3753 9.23687 10.0138 8.83691 9.76072C8.43694 9.5076 7.97333 9.37323 7.5 9.37323C7.02667 9.37323 6.56307 9.5076 6.1631 9.76072C5.76313 10.0138 5.44324 10.3753 5.24063 10.8031ZM7.5 14.83L3.5225 10.8525C2.73584 10.0658 2.20012 9.0635 1.98308 7.97236C1.76604 6.88122 1.87744 5.75022 2.30319 4.72239C2.72893 3.69456 3.4499 2.81606 4.37493 2.19798C5.29995 1.5799 6.38749 1.25 7.5 1.25C8.61252 1.25 9.70005 1.5799 10.6251 2.19798C11.5501 2.81606 12.2711 3.69456 12.6968 4.72239C13.1226 5.75022 13.234 6.88122 13.0169 7.97236C12.7999 9.0635 12.2642 10.0658 11.4775 10.8525L7.5 14.83ZM7.5 6.24995C7.66576 6.24995 7.82473 6.1841 7.94194 6.06689C8.05915 5.94968 8.125 5.79071 8.125 5.62495C8.125 5.45919 8.05915 5.30022 7.94194 5.18301C7.82473 5.0658 7.66576 4.99995 7.5 4.99995C7.33424 4.99995 7.17527 5.0658 7.05806 5.18301C6.94085 5.30022 6.875 5.45919 6.875 5.62495C6.875 5.79071 6.94085 5.94968 7.05806 6.06689C7.17527 6.1841 7.33424 6.24995 7.5 6.24995ZM7.5 7.49995C7.00272 7.49995 6.52581 7.30241 6.17418 6.95078C5.82255 6.59915 5.625 6.12223 5.625 5.62495C5.625 5.12767 5.82255 4.65076 6.17418 4.29913C6.52581 3.9475 7.00272 3.74995 7.5 3.74995C7.99728 3.74995 8.4742 3.9475 8.82583 4.29913C9.17746 4.65076 9.375 5.12767 9.375 5.62495C9.375 6.12223 9.17746 6.59915 8.82583 6.95078C8.4742 7.30241 7.99728 7.49995 7.5 7.49995Z" fill="#3242CC"/>
</svg>
