<svg width="121" height="21" viewBox="0 0 121 21" fill="none" xmlns="http://www.w3.org/2000/svg">
<rect width="20.4144" height="20.4144" rx="6.17179" fill="white"/>
<path d="M2.84961 15.1925C3.36286 14.4353 4.64597 11.2803 7.59714 12.7947C10.5483 14.3091 12.2164 5.22266 17.0922 5.22266" stroke="#3242CC" stroke-width="2" stroke-linecap="round" stroke-linejoin="round"/>
<path d="M35.3288 10.704H36.8048V14.052C36.3728 14.396 35.8688 14.66 35.2928 14.844C34.7168 15.028 34.1248 15.12 33.5168 15.12C32.6608 15.12 31.8888 14.936 31.2008 14.568C30.5128 14.192 29.9728 13.676 29.5808 13.02C29.1888 12.364 28.9928 11.624 28.9928 10.8C28.9928 9.976 29.1888 9.236 29.5808 8.58C29.9728 7.924 30.5128 7.412 31.2008 7.044C31.8968 6.668 32.6768 6.48 33.5408 6.48C34.2448 6.48 34.8848 6.596 35.4608 6.828C36.0368 7.06 36.5208 7.4 36.9128 7.848L35.9288 8.808C35.2888 8.168 34.5168 7.848 33.6128 7.848C33.0208 7.848 32.4928 7.972 32.0288 8.22C31.5728 8.468 31.2128 8.816 30.9488 9.264C30.6928 9.712 30.5648 10.224 30.5648 10.8C30.5648 11.36 30.6928 11.864 30.9488 12.312C31.2128 12.76 31.5728 13.112 32.0288 13.368C32.4928 13.624 33.0168 13.752 33.6008 13.752C34.2568 13.752 34.8328 13.608 35.3288 13.32V10.704ZM44.3224 11.832C44.3224 11.936 44.3144 12.084 44.2984 12.276H39.2704C39.3584 12.748 39.5864 13.124 39.9544 13.404C40.3304 13.676 40.7944 13.812 41.3464 13.812C42.0504 13.812 42.6304 13.58 43.0864 13.116L43.8904 14.04C43.6024 14.384 43.2384 14.644 42.7984 14.82C42.3584 14.996 41.8624 15.084 41.3104 15.084C40.6064 15.084 39.9864 14.944 39.4504 14.664C38.9144 14.384 38.4984 13.996 38.2024 13.5C37.9144 12.996 37.7704 12.428 37.7704 11.796C37.7704 11.172 37.9104 10.612 38.1904 10.116C38.4784 9.612 38.8744 9.22 39.3784 8.94C39.8824 8.66 40.4504 8.52 41.0824 8.52C41.7064 8.52 42.2624 8.66 42.7504 8.94C43.2464 9.212 43.6304 9.6 43.9024 10.104C44.1824 10.6 44.3224 11.176 44.3224 11.832ZM41.0824 9.72C40.6024 9.72 40.1944 9.864 39.8584 10.152C39.5304 10.432 39.3304 10.808 39.2584 11.28H42.8944C42.8304 10.816 42.6344 10.44 42.3064 10.152C41.9784 9.864 41.5704 9.72 41.0824 9.72ZM45.3432 6.096H46.8432V15H45.3432V6.096ZM54.668 6.096V15H53.228V14.172C52.98 14.476 52.672 14.704 52.304 14.856C51.944 15.008 51.544 15.084 51.104 15.084C50.488 15.084 49.932 14.948 49.436 14.676C48.948 14.404 48.564 14.02 48.284 13.524C48.004 13.02 47.864 12.444 47.864 11.796C47.864 11.148 48.004 10.576 48.284 10.08C48.564 9.584 48.948 9.2 49.436 8.928C49.932 8.656 50.488 8.52 51.104 8.52C51.528 8.52 51.916 8.592 52.268 8.736C52.62 8.88 52.92 9.096 53.168 9.384V6.096H54.668ZM51.284 13.8C51.644 13.8 51.968 13.72 52.256 13.56C52.544 13.392 52.772 13.156 52.94 12.852C53.108 12.548 53.192 12.196 53.192 11.796C53.192 11.396 53.108 11.044 52.94 10.74C52.772 10.436 52.544 10.204 52.256 10.044C51.968 9.876 51.644 9.792 51.284 9.792C50.924 9.792 50.6 9.876 50.312 10.044C50.024 10.204 49.796 10.436 49.628 10.74C49.46 11.044 49.376 11.396 49.376 11.796C49.376 12.196 49.46 12.548 49.628 12.852C49.796 13.156 50.024 13.392 50.312 13.56C50.6 13.72 50.924 13.8 51.284 13.8ZM59.2507 6.6H60.8107V15H59.2507V6.6ZM66.1547 8.52C66.9627 8.52 67.6107 8.756 68.0987 9.228C68.5867 9.7 68.8307 10.4 68.8307 11.328V15H67.3307V11.52C67.3307 10.96 67.1987 10.54 66.9347 10.26C66.6707 9.972 66.2947 9.828 65.8067 9.828C65.2547 9.828 64.8187 9.996 64.4987 10.332C64.1787 10.66 64.0187 11.136 64.0187 11.76V15H62.5187V8.592H63.9467V9.42C64.1947 9.124 64.5067 8.9 64.8827 8.748C65.2587 8.596 65.6827 8.52 66.1547 8.52ZM76.1963 8.592L73.4483 15H71.9003L69.1523 8.592H70.7123L72.7043 13.344L74.7563 8.592H76.1963ZM82.5621 11.832C82.5621 11.936 82.5541 12.084 82.5381 12.276H77.5101C77.5981 12.748 77.8261 13.124 78.1941 13.404C78.5701 13.676 79.0341 13.812 79.5861 13.812C80.2901 13.812 80.8701 13.58 81.3261 13.116L82.1301 14.04C81.8421 14.384 81.4781 14.644 81.0381 14.82C80.5981 14.996 80.1021 15.084 79.5501 15.084C78.8461 15.084 78.2261 14.944 77.6901 14.664C77.1541 14.384 76.7381 13.996 76.4421 13.5C76.1541 12.996 76.0101 12.428 76.0101 11.796C76.0101 11.172 76.1501 10.612 76.4301 10.116C76.7181 9.612 77.1141 9.22 77.6181 8.94C78.1221 8.66 78.6901 8.52 79.3221 8.52C79.9461 8.52 80.5021 8.66 80.9901 8.94C81.4861 9.212 81.8701 9.6 82.1421 10.104C82.4221 10.6 82.5621 11.176 82.5621 11.832ZM79.3221 9.72C78.8421 9.72 78.4341 9.864 78.0981 10.152C77.7701 10.432 77.5701 10.808 77.4981 11.28H81.1341C81.0701 10.816 80.8741 10.44 80.5461 10.152C80.2181 9.864 79.8101 9.72 79.3221 9.72ZM85.5629 15.084C85.0429 15.084 84.5349 15.016 84.0389 14.88C83.5429 14.744 83.1469 14.572 82.8509 14.364L83.4269 13.224C83.7149 13.416 84.0589 13.572 84.4589 13.692C84.8669 13.804 85.2669 13.86 85.6589 13.86C86.5549 13.86 87.0029 13.624 87.0029 13.152C87.0029 12.928 86.8869 12.772 86.6549 12.684C86.4309 12.596 86.0669 12.512 85.5629 12.432C85.0349 12.352 84.6029 12.26 84.2669 12.156C83.9389 12.052 83.6509 11.872 83.4029 11.616C83.1629 11.352 83.0429 10.988 83.0429 10.524C83.0429 9.916 83.2949 9.432 83.7989 9.072C84.3109 8.704 84.9989 8.52 85.8629 8.52C86.3029 8.52 86.7429 8.572 87.1829 8.676C87.6229 8.772 87.9829 8.904 88.2629 9.072L87.6869 10.212C87.1429 9.892 86.5309 9.732 85.8509 9.732C85.4109 9.732 85.0749 9.8 84.8429 9.936C84.6189 10.064 84.5069 10.236 84.5069 10.452C84.5069 10.692 84.6269 10.864 84.8669 10.968C85.1149 11.064 85.4949 11.156 86.0069 11.244C86.5189 11.324 86.9389 11.416 87.2669 11.52C87.5949 11.624 87.8749 11.8 88.1069 12.048C88.3469 12.296 88.4669 12.648 88.4669 13.104C88.4669 13.704 88.2069 14.184 87.6869 14.544C87.1669 14.904 86.4589 15.084 85.5629 15.084ZM93.1907 14.652C93.0147 14.796 92.7987 14.904 92.5427 14.976C92.2947 15.048 92.0307 15.084 91.7507 15.084C91.0467 15.084 90.5027 14.9 90.1187 14.532C89.7347 14.164 89.5427 13.628 89.5427 12.924V9.84H88.4867V8.64H89.5427V7.176H91.0427V8.64H92.7587V9.84H91.0427V12.888C91.0427 13.2 91.1187 13.44 91.2707 13.608C91.4227 13.768 91.6427 13.848 91.9307 13.848C92.2667 13.848 92.5467 13.76 92.7707 13.584L93.1907 14.652ZM99.8177 11.832C99.8177 11.936 99.8097 12.084 99.7937 12.276H94.7657C94.8537 12.748 95.0817 13.124 95.4497 13.404C95.8257 13.676 96.2897 13.812 96.8417 13.812C97.5457 13.812 98.1257 13.58 98.5817 13.116L99.3857 14.04C99.0977 14.384 98.7337 14.644 98.2937 14.82C97.8537 14.996 97.3577 15.084 96.8057 15.084C96.1017 15.084 95.4817 14.944 94.9457 14.664C94.4097 14.384 93.9937 13.996 93.6977 13.5C93.4097 12.996 93.2657 12.428 93.2657 11.796C93.2657 11.172 93.4057 10.612 93.6857 10.116C93.9737 9.612 94.3697 9.22 94.8737 8.94C95.3777 8.66 95.9457 8.52 96.5777 8.52C97.2017 8.52 97.7577 8.66 98.2457 8.94C98.7417 9.212 99.1257 9.6 99.3977 10.104C99.6777 10.6 99.8177 11.176 99.8177 11.832ZM96.5777 9.72C96.0977 9.72 95.6897 9.864 95.3537 10.152C95.0257 10.432 94.8257 10.808 94.7537 11.28H98.3897C98.3257 10.816 98.1297 10.44 97.8017 10.152C97.4737 9.864 97.0657 9.72 96.5777 9.72ZM102.267 9.528C102.699 8.856 103.459 8.52 104.547 8.52V9.948C104.419 9.924 104.303 9.912 104.199 9.912C103.615 9.912 103.159 10.084 102.831 10.428C102.503 10.764 102.339 11.252 102.339 11.892V15H100.839V8.592H102.267V9.528ZM111.364 11.832C111.364 11.936 111.356 12.084 111.34 12.276H106.312C106.4 12.748 106.628 13.124 106.996 13.404C107.372 13.676 107.836 13.812 108.388 13.812C109.092 13.812 109.672 13.58 110.128 13.116L110.932 14.04C110.644 14.384 110.28 14.644 109.84 14.82C109.4 14.996 108.904 15.084 108.352 15.084C107.648 15.084 107.028 14.944 106.492 14.664C105.956 14.384 105.54 13.996 105.244 13.5C104.956 12.996 104.812 12.428 104.812 11.796C104.812 11.172 104.952 10.612 105.232 10.116C105.52 9.612 105.916 9.22 106.42 8.94C106.924 8.66 107.492 8.52 108.124 8.52C108.748 8.52 109.304 8.66 109.792 8.94C110.288 9.212 110.672 9.6 110.944 10.104C111.224 10.6 111.364 11.176 111.364 11.832ZM108.124 9.72C107.644 9.72 107.236 9.864 106.9 10.152C106.572 10.432 106.372 10.808 106.3 11.28H109.936C109.872 10.816 109.676 10.44 109.348 10.152C109.02 9.864 108.612 9.72 108.124 9.72ZM116.021 8.52C116.829 8.52 117.477 8.756 117.965 9.228C118.453 9.7 118.697 10.4 118.697 11.328V15H117.197V11.52C117.197 10.96 117.065 10.54 116.801 10.26C116.537 9.972 116.161 9.828 115.673 9.828C115.121 9.828 114.685 9.996 114.365 10.332C114.045 10.66 113.885 11.136 113.885 11.76V15H112.385V8.592H113.813V9.42C114.061 9.124 114.373 8.9 114.749 8.748C115.125 8.596 115.549 8.52 116.021 8.52Z" fill="white"/>
</svg>
