<svg width="18" height="18" viewBox="0 0 18 18" fill="none" xmlns="http://www.w3.org/2000/svg">
<path d="M12.813 11.8589C13.5183 11.1137 13.9898 10.1782 14.1692 9.16792C14.3485 8.15767 14.2279 7.11699 13.8223 6.17453C13.4166 5.23206 12.7437 4.42913 11.8867 3.86496C11.0296 3.30079 10.0261 3.00013 9 3.00013C7.97395 3.00013 6.97038 3.30079 6.11334 3.86496C5.25631 4.42913 4.58338 5.23206 4.17772 6.17453C3.77207 7.11699 3.65148 8.15767 3.83085 9.16792C4.01022 10.1782 4.4817 11.1137 5.187 11.8589C5.59175 11.2131 6.15402 10.6807 6.821 10.3118C7.48799 9.94286 8.23779 9.74953 9 9.74994C9.76221 9.74953 10.512 9.94286 11.179 10.3118C11.846 10.6807 12.4083 11.2131 12.813 11.8589ZM6.28875 12.9637L9 15.6742L11.7113 12.9637C11.4681 12.4504 11.0842 12.0166 10.6043 11.7129C10.1243 11.4091 9.568 11.2479 9 11.2479C8.43201 11.2479 7.87568 11.4091 7.39572 11.7129C6.91576 12.0166 6.53189 12.4504 6.28875 12.9637ZM9 17.7959L4.227 13.0229C3.28301 12.0789 2.64014 10.8762 2.3797 9.56683C2.11925 8.25746 2.25293 6.90026 2.76382 5.66687C3.27472 4.43347 4.13988 3.37927 5.24991 2.63757C6.35994 1.89588 7.66498 1.5 9 1.5C10.335 1.5 11.6401 1.89588 12.7501 2.63757C13.8601 3.37927 14.7253 4.43347 15.2362 5.66687C15.7471 6.90026 15.8808 8.25746 15.6203 9.56683C15.3599 10.8762 14.717 12.0789 13.773 13.0229L9 17.7959ZM9 7.49994C9.19892 7.49994 9.38968 7.42092 9.53033 7.28027C9.67099 7.13962 9.75 6.94885 9.75 6.74994C9.75 6.55103 9.67099 6.36026 9.53033 6.21961C9.38968 6.07896 9.19892 5.99994 9 5.99994C8.80109 5.99994 8.61033 6.07896 8.46967 6.21961C8.32902 6.36026 8.25 6.55103 8.25 6.74994C8.25 6.94885 8.32902 7.13962 8.46967 7.28027C8.61033 7.42092 8.80109 7.49994 9 7.49994ZM9 8.99994C8.40327 8.99994 7.83097 8.76289 7.40901 8.34093C6.98706 7.91897 6.75 7.34668 6.75 6.74994C6.75 6.1532 6.98706 5.58091 7.40901 5.15895C7.83097 4.73699 8.40327 4.49994 9 4.49994C9.59674 4.49994 10.169 4.73699 10.591 5.15895C11.0129 5.58091 11.25 6.1532 11.25 6.74994C11.25 7.34668 11.0129 7.91897 10.591 8.34093C10.169 8.76289 9.59674 8.99994 9 8.99994Z" fill="#3242CC"/>
</svg>
